<svg id="Layer_1" data-name="Layer 1" xmlns="http://www.w3.org/2000/svg" viewBox="0 0 452.36 479.65"><defs><style>.cls-1{fill:#684d63;}.cls-2{fill:#4e3a4a;}.cls-3{fill:#82607c;}.cls-4{fill:#fcfdfe;}.cls-5{fill:#f3eff2;}.cls-6{fill:#36687f;}</style></defs><title>3dsmax</title><path class="cls-1" d="M128.65,160.85l321.71-.77a30.22,30.22,0,0,1,16.58,9.3c7.16,8,7.42,18.46,7.49,22.79.34,19.13.3,139.68-.8,305.24h-345Z" transform="translate(-55.48 -160.08)"/><path class="cls-2" d="M128.65,497.41h345l.84-262.56,33.35.06q0,202.41,0,404.81H118c-1.72,0-10.52-.38-16.91-7.46a22.64,22.64,0,0,1-5.28-10.61q-.3-52.26-.59-104.54Z" transform="translate(-55.48 -160.08)"/><path class="cls-3" d="M128.65,497.41,55.48,540.77V204.39l73.17-43.54Z" transform="translate(-55.48 -160.08)"/><path class="cls-4" d="M332,322.17c1.94.51,31.57,8.81,39,35.29C377,379,364,397.12,362,399.85c-25.62,34.69-98.62,36.38-124.57,1.89-7.45-9.91-9.8-21.19-10.42-30.07.09-.07.18-.19.27-.19h41.93a24.68,24.68,0,0,0,3.09,9.1c5.64,9.61,18.29,15.17,30.18,12.94,1.54-.29,15.68-3.19,21.24-16.71,3.68-9,2.37-19.67-3.47-26.85-3.82-4.68-8.42-6.69-13.2-8.32-12.18-4.16-26.13-2.69-30.22-2.18L276.6,308a99.4,99.4,0,0,0,15.95.19c7.62-.53,11.41-.81,14.53-2.48,9.08-4.89,16.76-23.22,7.15-35.08-9.16-11.3-27.63-8.66-36.38.3a24.45,24.45,0,0,0-6.41,14.3h-43.3c1.7-8.7,6.36-25.32,20.51-38.49,26.12-24.3,71.35-24.57,96.4-2.56,4.13,3.63,22.17,19.56,19,42.05C361.72,302.68,349.1,316.63,332,322.17Z" transform="translate(-55.48 -160.08)"/><path class="cls-5" d="M248.1,530.89l21.32,0v70.21H253.23L252.16,558c-3.74,14.35-7.48,28.69-11.26,43.15H224.72L212,556.51v44.7H197.1V530.86h21.77q7,27.48,13.92,54.77h.78l7.18-27.07C242.32,552.64,246.52,536.82,248.1,530.89Z" transform="translate(-55.48 -160.08)"/><path class="cls-5" d="M296.42,601.15H278.74Q288.87,566,299,530.92h23.61q10.49,35.18,21,70.35l-17.73,0-5.57-15.62H301.12Z" transform="translate(-55.48 -160.08)"/><path class="cls-5" d="M368.22,601.18h-19.3L370.6,562.4,351.84,531h18.65q6,10.72,12,21.43,6.15-10.76,12.28-21.51h17.95l-19.59,31.43,21.59,38.94H395.79l-13.83-26Z" transform="translate(-55.48 -160.08)"/><path class="cls-2" d="M318.05,572.77H303.77l6.75-30.53Z" transform="translate(-55.48 -160.08)"/><path class="cls-6" d="M752.13,512.44" transform="translate(-55.48 -160.08)"/></svg>