<?xml version="1.0" encoding="utf-8"?>
<!-- Generator: Adobe Illustrator 23.0.6, SVG Export Plug-In . SVG Version: 6.00 Build 0)  -->
<svg version="1.1" id="Layer_1" xmlns="http://www.w3.org/2000/svg" xmlns:xlink="http://www.w3.org/1999/xlink" x="0px" y="0px"
	 viewBox="0 0 32 32" style="enable-background:new 0 0 32 32;" xml:space="preserve">
<style type="text/css">
	.st0{clip-path:url(#SVGID_2_);}
	.st1{fill:#684D63;}
	.st2{fill:#F3EFF2;}
</style>
<g>
	<defs>
		<rect id="SVGID_1_" y="0" width="32" height="31.2"/>
	</defs>
	<clipPath id="SVGID_2_">
		<use xlink:href="#SVGID_1_"  style="overflow:visible;"/>
	</clipPath>
	<g class="st0">
		<path class="st1" d="M5.7,0h20.7C29.5,0,32,2.6,32,5.7v19.9c0,3.1-2.5,5.7-5.7,5.7H5.7c-3.1,0-5.7-2.5-5.7-5.7V5.7
			C0,2.6,2.5,0,5.7,0z"/>
		<path class="st2" d="M7.6,21.9V8.2c0-0.1,0-0.1,0.1-0.1c0.2,0,0.4,0,0.7,0c0.3,0,0.7,0,1,0c0.4,0,0.7,0,1.2,0c0.4,0,0.8,0,1.2,0
			c1.1,0,2,0.1,2.7,0.4c0.7,0.2,1.3,0.6,1.8,1.1c0.4,0.4,0.8,0.9,1,1.5c0.2,0.6,0.3,1.1,0.3,1.7c0,1.1-0.3,2.1-0.8,2.8
			c-0.5,0.7-1.3,1.3-2.1,1.6c-0.9,0.3-1.9,0.5-3,0.5c-0.3,0-0.5,0-0.7,0c-0.1,0-0.3,0-0.6,0v4.3c0,0.1-0.1,0.2-0.1,0.2
			c0,0,0,0-0.1,0H7.8C7.7,22.1,7.6,22,7.6,21.9z M10.5,10.6v4.5c0.2,0,0.4,0,0.5,0h0.7c0.5,0,1-0.1,1.5-0.2c0.4-0.1,0.8-0.4,1.1-0.7
			c0.3-0.3,0.4-0.8,0.4-1.4c0-0.4-0.1-0.8-0.3-1.2c-0.2-0.3-0.5-0.6-0.9-0.8c-0.5-0.2-1-0.3-1.6-0.3c-0.3,0-0.7,0-0.9,0
			C10.8,10.6,10.6,10.6,10.5,10.6z"/>
		<path class="st2" d="M19.5,11.4h2.3c0.1,0,0.2,0.1,0.3,0.2c0,0.1,0.1,0.2,0.1,0.3c0,0.1,0.1,0.3,0.1,0.4c0,0.1,0,0.3,0,0.5
			c0.4-0.5,0.9-0.9,1.4-1.1c0.6-0.3,1.3-0.5,2-0.5c0.1,0,0.2,0.1,0.2,0.1c0,0,0,0,0,0.1V14c0,0.1-0.1,0.1-0.2,0.1
			c-0.5,0-1,0-1.4,0.1c-0.4,0.1-0.8,0.2-1.1,0.4c-0.3,0.1-0.5,0.3-0.7,0.5v6.8c0,0.1-0.1,0.2-0.2,0.2h-2.6c-0.1,0-0.2-0.1-0.2-0.2
			c0,0,0,0,0-0.1v-7.4c0-0.3,0-0.7,0-1c0-0.3,0-0.7,0-1c0-0.3,0-0.6-0.1-0.9C19.4,11.5,19.4,11.4,19.5,11.4
			C19.5,11.4,19.5,11.4,19.5,11.4z"/>
	</g>
</g>
</svg>
