<?xml version="1.0" encoding="utf-8"?>
<!-- Generator: Adobe Illustrator 23.0.6, SVG Export Plug-In . SVG Version: 6.00 Build 0)  -->
<svg version="1.1" id="Layer_1" xmlns="http://www.w3.org/2000/svg" xmlns:xlink="http://www.w3.org/1999/xlink" x="0px" y="0px"
	 viewBox="0 0 32 32" style="enable-background:new 0 0 32 32;" xml:space="preserve">
<style type="text/css">
	.st0{clip-path:url(#SVGID_2_);}
	.st1{fill:#684D63;}
	.st2{fill:#F3EFF2;}
</style>
<g>
	<defs>
		<rect id="SVGID_1_" y="0.4" width="32" height="31.2"/>
	</defs>
	<clipPath id="SVGID_2_">
		<use xlink:href="#SVGID_1_"  style="overflow:visible;"/>
	</clipPath>
	<g class="st0">
		<path class="st1" d="M26.3,0.4H5.7C2.5,0.4,0,2.9,0,6.1v19.9c0,3.1,2.5,5.7,5.7,5.7h20.7c3.1,0,5.7-2.5,5.7-5.7V6.1
			C32,2.9,29.5,0.4,26.3,0.4z"/>
		<path class="st2" d="M12.9,19.1h-5l-1,3.1c0,0.1,0,0.1-0.1,0.1c0,0-0.1,0.1-0.2,0.1H4.1c-0.1,0-0.2-0.1-0.2-0.2L8.3,9.8
			c0-0.1,0.1-0.3,0.1-0.4c0.1-0.3,0.1-0.6,0.1-0.9c0,0,0,0,0-0.1c0,0,0,0,0-0.1c0,0,0,0,0.1,0c0,0,0,0,0.1,0H12c0.1,0,0.2,0,0.2,0.1
			l4.9,13.7c0,0.1,0,0.2-0.1,0.2h-2.8c0,0-0.1,0-0.1,0c0,0-0.1-0.1-0.1-0.1L12.9,19.1z M8.7,16.4h3.4c-0.1-0.3-0.2-0.6-0.3-1
			c-0.1-0.4-0.2-0.7-0.4-1.1c-0.1-0.4-0.3-0.8-0.4-1.2c-0.1-0.4-0.2-0.8-0.4-1.2c-0.1-0.4-0.2-0.7-0.3-1h0c-0.1,0.6-0.3,1.2-0.5,1.7
			c-0.2,0.6-0.4,1.3-0.6,2C9.1,15.2,8.9,15.8,8.7,16.4z"/>
		<path class="st2" d="M25,17.8h-4.2c0.1,0.4,0.2,0.8,0.4,1.2c0.2,0.4,0.6,0.6,1,0.8c0.5,0.2,1.1,0.3,1.7,0.3c0.5,0,0.9-0.1,1.4-0.2
			c0.4-0.1,0.8-0.2,1.2-0.3c0.1-0.1,0.1,0,0.1,0.1v2c0,0.1,0,0.1,0,0.2c0,0-0.1,0.1-0.1,0.1c-0.4,0.2-0.9,0.3-1.3,0.4
			c-0.6,0.1-1.3,0.2-1.9,0.2c-1,0-1.9-0.2-2.6-0.5c-0.6-0.3-1.2-0.7-1.7-1.3c-0.4-0.5-0.7-1.1-0.9-1.7c-0.2-0.6-0.3-1.3-0.3-1.9
			c0-0.7,0.1-1.4,0.3-2.1c0.2-0.7,0.6-1.3,1-1.8c0.4-0.5,1-1,1.6-1.3c0.6-0.3,1.4-0.4,2.2-0.4c0.7,0,1.4,0.1,2.1,0.4
			c0.5,0.2,1,0.6,1.4,1.1c0.4,0.5,0.6,1,0.8,1.5c0.2,0.5,0.3,1.1,0.3,1.6c0,0.3,0,0.6,0,0.9c0,0.3,0,0.4-0.1,0.6c0,0,0,0.1-0.1,0.1
			c0,0-0.1,0-0.1,0c-0.1,0-0.2,0-0.4,0c-0.2,0-0.5,0-0.8,0C25.7,17.9,25.3,17.8,25,17.8z M20.8,15.9h2.8c0.3,0,0.6,0,0.8,0
			c0.1,0,0.2,0,0.3-0.1v-0.1c0-0.2,0-0.3-0.1-0.5c-0.1-0.4-0.3-0.7-0.7-0.9c-0.3-0.2-0.7-0.3-1.1-0.3c-0.4,0-0.7,0.1-1,0.2
			c-0.3,0.2-0.6,0.4-0.7,0.8C20.9,15.2,20.8,15.6,20.8,15.9z"/>
	</g>
</g>
</svg>
