<?xml version="1.0" encoding="utf-8"?>
<!-- Generator: Adobe Illustrator 23.0.6, SVG Export Plug-In . SVG Version: 6.00 Build 0)  -->
<svg version="1.1" id="Layer_1" xmlns="http://www.w3.org/2000/svg" xmlns:xlink="http://www.w3.org/1999/xlink" x="0px" y="0px"
	 viewBox="0 0 32 32" style="enable-background:new 0 0 32 32;" xml:space="preserve">
<style type="text/css">
	.st0{clip-path:url(#SVGID_2_);}
	.st1{fill:#684D63;}
	.st2{fill:#F3EFF2;}
</style>
<g>
	<defs>
		<rect id="SVGID_1_" y="0.2" width="32" height="31.2"/>
	</defs>
	<clipPath id="SVGID_2_">
		<use xlink:href="#SVGID_1_"  style="overflow:visible;"/>
	</clipPath>
	<g class="st0">
		<path class="st1" d="M26.3,0.2H5.7C2.5,0.2,0,2.7,0,5.9v19.9c0,3.1,2.5,5.7,5.7,5.7h20.7c3.1,0,5.7-2.5,5.7-5.7V5.9
			C32,2.7,29.5,0.2,26.3,0.2z"/>
		<path class="st2" d="M12.6,18.9h-5l-1,3.1c0,0.1,0,0.1-0.1,0.1c0,0-0.1,0.1-0.2,0.1H3.8c-0.1,0-0.2-0.1-0.2-0.2L8,9.6
			c0-0.1,0.1-0.3,0.1-0.4c0.1-0.3,0.1-0.6,0.1-0.9c0,0,0,0,0-0.1c0,0,0,0,0-0.1c0,0,0,0,0.1,0c0,0,0,0,0.1,0h3.4
			c0.1,0,0.2,0,0.2,0.1L16.8,22c0,0.1,0,0.2-0.1,0.2h-2.8c0,0-0.1,0-0.1,0c0,0-0.1-0.1-0.1-0.1L12.6,18.9z M8.4,16.2h3.4
			c-0.1-0.3-0.2-0.6-0.3-1c-0.1-0.4-0.2-0.7-0.4-1.1c-0.1-0.4-0.3-0.8-0.4-1.2s-0.2-0.8-0.4-1.2c-0.1-0.4-0.2-0.7-0.3-1h0
			c-0.1,0.6-0.3,1.2-0.5,1.7c-0.2,0.6-0.4,1.3-0.6,2C8.8,15,8.6,15.6,8.4,16.2L8.4,16.2z"/>
		<path class="st2" d="M27,11.7v8.2c0,0.4,0,0.7,0,1c0,0.3,0,0.5,0,0.7c0,0.2,0,0.3,0.1,0.5c0,0.1,0,0.2-0.2,0.2h-2.3
			c-0.1,0-0.1,0-0.2,0c0,0-0.1-0.1-0.1-0.1c0-0.1-0.1-0.2-0.1-0.3c0-0.1,0-0.2,0-0.3c-0.4,0.4-0.9,0.7-1.5,0.8
			c-0.5,0.1-1,0.2-1.5,0.2c-0.5,0-1-0.1-1.4-0.2c-0.4-0.1-0.8-0.4-1.1-0.7c-0.3-0.4-0.6-0.8-0.8-1.3c-0.2-0.6-0.3-1.3-0.3-1.9v-6.6
			c0,0,0,0,0-0.1c0,0,0,0,0-0.1c0,0,0,0,0.1,0c0,0,0,0,0.1,0h2.6c0,0,0,0,0.1,0c0,0,0,0,0.1,0c0,0,0,0,0,0.1c0,0,0,0,0,0.1V18
			c0,0.6,0.1,1,0.4,1.4c0.3,0.3,0.8,0.5,1.4,0.5c0.3,0,0.6-0.1,0.9-0.2c0.3-0.1,0.6-0.3,0.8-0.4v-7.6c0-0.1,0.1-0.2,0.2-0.2h2.5
			c0,0,0,0,0.1,0c0,0,0,0,0.1,0C27,11.6,27,11.6,27,11.7C27,11.6,27,11.7,27,11.7z"/>
	</g>
</g>
</svg>
