<svg id="Layer_1" data-name="Layer 1" xmlns="http://www.w3.org/2000/svg" viewBox="0 0 389.36 413.44"><defs><style>.cls-1{fill:#684d63;}.cls-2{fill:#4e3a4a;}.cls-3{fill:#82607c;}.cls-4{fill:#fefdfd;}.cls-5{fill:#fdfdfd;}.cls-6{fill:#fcfafb;}</style></defs><title>autocad</title><path class="cls-1" d="M123.85,49.75l274.26-.47c5.86,0,13.23,1.16,18.21,6.32,6.05,6.29,5.61,15.59,5.61,18.65V339.58L124,339.83Q123.95,194.78,123.85,49.75Z" transform="translate(-61.01 -49.28)"/><path class="cls-2" d="M124,339.83,422,339.58V113.75h28.42V462.49l-331,.15a22.24,22.24,0,0,1-24-20.3,22.84,22.84,0,0,1,0-3.79l.15-80.47Zm115.27,47c-.57-10.69-5.83-16.32-16.73-18.42-18.73-3.62-31.05,6.44-31.06,25.37,0,4.33-.22,8.67.06,13,.23,3.45.48,7.09,1.72,10.25,5.76,14.63,30.2,19.14,41.16,7.69a17.76,17.76,0,0,0,5.08-13.52H226.17c-.08.6-.71,5.22-4.77,7.61a10.08,10.08,0,0,1-12-1.62c-1-1-2.25-2.14-2.37-6.2-.24-7.81-.3-15.65,0-23.47.14-3.47,1.14-4.61,2.1-5.69,2.78-3.11,8.81-4.45,12.94-1.45a10,10,0,0,1,3.75,6.47Z" transform="translate(-61.01 -49.28)"/><path class="cls-3" d="M124,339.83,61.08,380.49,61,87.93l62.84-38.18Q124,194.79,124,339.83Z" transform="translate(-61.01 -49.28)"/><path class="cls-4" d="M244.84,114h53.69q24.14,80.1,48.37,160.58H306L293.07,240l-45-.14c-3,11.53-6,23-9,34.75H199ZM272,142.31h-.9q-7.83,33.54-15.68,67.15h32.79c-5.48-22.61-10.84-44.86-16.21-67.11Z" transform="translate(-61.01 -49.28)"/><path class="cls-5" d="M308.1,369.74l29.36.19a18.3,18.3,0,0,1,9.42,3.38c7.31,5.48,7.58,15.67,7.81,24.58.27,10.21.46,17.25-4.7,23.4-6.44,7.68-16.49,8.35-19.13,8.44l-22.76.08Zm15.09,10.15v38.64c10.95,1.08,15.8-1.74,16.5-10.24a121.94,121.94,0,0,0,0-18.92c-.47-6.37-4.16-9.31-10.6-9.47C327.26,379.85,325.44,379.89,323.19,379.89Z" transform="translate(-61.01 -49.28)"/><path class="cls-6" d="M283.65,429.67c-1.36-4.74-2.59-9-3.88-13.59H262.52l-4.38,13.59H243.07l17.29-60.5h20.46q9,29.91,18.29,60.52Z" transform="translate(-61.01 -49.28)"/><path class="cls-1" d="M272,142.35c5.37,22.25,10.73,44.5,16.21,67.18H255.43Q263.71,175.95,272,142.35Z" transform="translate(-61.01 -49.28)"/><path class="cls-2" d="M323.19,379.89h5.9c6.44.16,10.13,3.1,10.6,9.47a121.94,121.94,0,0,1,0,18.92c-.7,8.5-5.55,11.32-16.5,10.24Z" transform="translate(-61.01 -49.28)"/><path class="cls-2" d="M277,404.73H264.46l6-24.49Q273.72,392.48,277,404.73Z" transform="translate(-61.01 -49.28)"/></svg>