<svg id="Layer_1" data-name="Layer 1" xmlns="http://www.w3.org/2000/svg" viewBox="0 0 30 29.2"><defs><style>.cls-1{fill:#684d63;}.cls-2{fill:#f3eff2;}</style></defs><title>indesign</title><path class="cls-1" d="M25.7.9H6.3A5.34,5.34,0,0,0,1,6.2V24.8a5.34,5.34,0,0,0,5.3,5.3H25.7A5.34,5.34,0,0,0,31,24.8V6.2A5.34,5.34,0,0,0,25.7.9Z" transform="translate(-1 -0.9)"/><path class="cls-2" d="M11.9,8.5V21.3a.22.22,0,0,1-.2.2H9.3a.22.22,0,0,1-.2-.2V8.5a.22.22,0,0,1,.2-.2h2.6c.1,0,0,.2,0,.2Z" transform="translate(-1 -0.9)"/><path class="cls-2" d="M19.1,21.8a6.6,6.6,0,0,1-2.7-.6,5.19,5.19,0,0,1-1.9-1.7,5.07,5.07,0,0,1-.7-2.8,4.84,4.84,0,0,1,.7-2.6,5.2,5.2,0,0,1,2-1.9,6.31,6.31,0,0,1,3.2-.7h.7v-4c0-.1,0-.1.1-.1H23V20a1.48,1.48,0,0,0,.1.7v.1l-.1.1a7.62,7.62,0,0,1-2,.6A6.28,6.28,0,0,1,19.1,21.8Zm1.2-2.5V13.8a.37.37,0,0,1-.3-.1h-.4a3.19,3.19,0,0,0-1.4.3,3.13,3.13,0,0,0-1.1.9,2.54,2.54,0,0,0-.4,1.6,5.85,5.85,0,0,0,.2,1.3,2.36,2.36,0,0,0,.6.9,2.18,2.18,0,0,0,.8.5,3.55,3.55,0,0,0,1,.2h.5A1.09,1.09,0,0,1,20.3,19.3Z" transform="translate(-1 -0.9)"/></svg>