<?xml version="1.0" encoding="utf-8"?>
<!-- Generator: Adobe Illustrator 23.0.6, SVG Export Plug-In . SVG Version: 6.00 Build 0)  -->
<svg version="1.1" id="Layer_1" xmlns="http://www.w3.org/2000/svg" xmlns:xlink="http://www.w3.org/1999/xlink" x="0px" y="0px"
	 viewBox="0 0 32 32" style="enable-background:new 0 0 32 32;" xml:space="preserve">
<style type="text/css">
	.st0{clip-path:url(#SVGID_2_);}
	.st1{fill:#684D63;}
	.st2{fill:#F3EFF2;}
</style>
<g>
	<defs>
		<rect id="SVGID_1_" y="0.4" width="32" height="31.2"/>
	</defs>
	<clipPath id="SVGID_2_">
		<use xlink:href="#SVGID_1_"  style="overflow:visible;"/>
	</clipPath>
	<g class="st0">
		<path class="st1" d="M26.3,0.4H5.7C2.5,0.4,0,2.9,0,6.1v19.9c0,3.1,2.5,5.7,5.7,5.7h20.7c3.1,0,5.7-2.5,5.7-5.7V6.1
			C32,2.9,29.5,0.4,26.3,0.4z"/>
		<path class="st2" d="M16.8,22.4H8.3c-0.1,0-0.2-0.1-0.2-0.2V8.6c0,0,0-0.1,0-0.1c0,0,0,0,0-0.1c0,0,0,0,0.1,0c0,0,0.1,0,0.1,0h2.6
			c0,0,0,0,0.1,0c0,0,0,0,0.1,0c0,0,0,0,0,0.1c0,0,0,0,0,0.1v11.2h6.2c0.1,0,0.2,0.1,0.2,0.2L17,22.3c0,0,0,0.1,0,0.1
			c0,0,0,0.1-0.1,0.1C16.9,22.4,16.9,22.4,16.8,22.4z"/>
		<path class="st2" d="M18.9,11.8h2.3c0.1,0,0.1,0,0.2,0.1c0.1,0,0.1,0.1,0.1,0.2c0.1,0.1,0.1,0.2,0.1,0.3c0,0.1,0.1,0.3,0.1,0.4
			c0,0.2,0,0.3,0,0.5c0.4-0.5,0.9-0.9,1.4-1.1c0.6-0.3,1.3-0.5,2-0.5c0,0,0.1,0,0.1,0c0,0,0,0,0.1,0c0,0,0,0,0,0.1c0,0,0,0.1,0,0.1
			v2.6c0,0.1-0.1,0.2-0.2,0.2c-0.9-0.1-1.7,0.1-2.5,0.5c-0.3,0.1-0.5,0.3-0.7,0.5v6.8c0,0.1-0.1,0.2-0.2,0.2h-2.6c0,0-0.1,0-0.1,0
			c0,0-0.1,0-0.1,0c0,0,0,0,0-0.1c0,0,0-0.1,0-0.1v-7.4c0-0.3,0-0.6,0-1c0-0.4,0-0.7,0-1c0-0.3,0-0.6-0.1-0.9c0,0,0,0,0-0.1
			c0,0,0,0,0-0.1C18.8,11.8,18.8,11.8,18.9,11.8C18.9,11.8,18.9,11.8,18.9,11.8L18.9,11.8z"/>
	</g>
</g>
</svg>
