<svg id="Layer_1" data-name="Layer 1" xmlns="http://www.w3.org/2000/svg" viewBox="0 0 268.59 285.84"><defs><style>.cls-1{fill:#f3eff2;}.cls-2{fill:#684d63;}.cls-3{fill:#4e3a4a;}.cls-4{fill:#82607c;}</style></defs><title>maya</title><path class="cls-1" d="M270.17,533.06H282.9c.83,3,1.62,5.81,2.47,8.83l11-.16c-4.25-14.2-8.38-28-12.51-41.74H269.36l-11,41.81h9.54Z" transform="translate(-165.21 -278.89)"/><path class="cls-2" d="M208,278.89H401.67c.75.09,7.82,1.06,11,7.19a13.18,13.18,0,0,1,1.38,7.25c0,8.75-.05,21.81-.07,30.56q-.15,78,0,156H208ZM253,435.82l25.05.06.32-68.78,18.92,68.66h25.62q9.28-34.33,18.58-68.67.29,34.32.58,68.65h26.83V324h-34q-11.67,44-23.33,88Q300.22,368,288.88,324.09L253,324.4Z" transform="translate(-165.21 -278.89)"/><path class="cls-3" d="M208,479.89H414v-156h19.5q.15,120.42.31,240.84H198.13a15.71,15.71,0,0,1-8.18-6.86,15.22,15.22,0,0,1-1.95-7.49V492.89c.11-.28.15-.7.36-.82,2.37-1.42,4.8-2.74,7.14-4.2C199.69,485.25,203.84,482.55,208,479.89Zm62.17,53.17H282.9c.83,3,1.62,5.81,2.47,8.83l11-.16c-4.25-14.2-8.38-28-12.51-41.74H269.36l-11,41.81h9.54Zm41.15-15.79-7.62-17.34-11,0L306,524.73q0,8.52,0,17h10.93V525L330,500h-11.2Q315.08,508.61,311.32,517.27Z" transform="translate(-165.21 -278.89)"/><path class="cls-4" d="M208,479.89l-42.79,27.19q0-101.2,0-202.42L208,278.89Z" transform="translate(-165.21 -278.89)"/><path class="cls-3" d="M281.19,524.68H273q1.79-8.77,3.56-17.55Z" transform="translate(-165.21 -278.89)"/><path class="cls-1" d="M352.38,500H337.91l-11,41.81h9.54l2.31-8.74h12.73c.83,3,1.63,5.81,2.47,8.83l11-.16" transform="translate(-165.21 -278.89)"/><path class="cls-3" d="M349.33,524.73h-8.24q1.79-8.78,3.56-17.55Z" transform="translate(-165.21 -278.89)"/><path class="cls-1" d="M311.32,517.27l-7.62-17.34-11,0L306,524.73q0,8.52,0,17h10.93V525L330,500h-11.2Q315.08,508.61,311.32,517.27Z" transform="translate(-165.21 -278.89)"/><path class="cls-1" d="M253,435.82l25.05.06.32-68.78,18.92,68.66h25.62q9.28-34.33,18.58-68.67.29,34.32.58,68.65h26.83V324h-34q-11.67,44-23.33,88Q300.22,368,288.88,324.09L253,324.4Z" transform="translate(-165.21 -278.89)"/></svg>