<svg id="Layer_1" data-name="Layer 1" xmlns="http://www.w3.org/2000/svg" xmlns:xlink="http://www.w3.org/1999/xlink" viewBox="0 0 32.1 31.3"><defs><style>.cls-1{fill:none;}.cls-2{clip-path:url(#clip-path);}.cls-3{fill:#694e63;}.cls-4{fill:#f3eff2;}</style><clipPath id="clip-path" transform="translate(-281.45 -404.85)"><rect class="cls-1" x="281.45" y="404.85" width="32" height="31.2"/></clipPath></defs><title>Untitled-1</title><g class="cls-2"><path class="cls-3" d="M307.75,404.85h-20.6a5.63,5.63,0,0,0-5.7,5.7v19.9a5.7,5.7,0,0,0,5.7,5.7h20.7a5.7,5.7,0,0,0,5.7-5.7v-19.9A5.78,5.78,0,0,0,307.75,404.85Z" transform="translate(-281.45 -404.85)"/><path class="cls-4" d="M288.65,426.75v-13.7c0-.1,0-.2.1-.2H293a7,7,0,0,1,2.7.4,4,4,0,0,1,1.8,1,4,4,0,0,1,1,1.5,5.08,5.08,0,0,1,.3,1.7,4.88,4.88,0,0,1-.8,2.8,4.74,4.74,0,0,1-2.1,1.6,9.43,9.43,0,0,1-3,.5h-1.3v4.5h-2.7C288.75,426.85,288.65,426.85,288.65,426.75Zm2.9-11.3V420h1.2a7.72,7.72,0,0,0,1.5-.2,2.59,2.59,0,0,0,1.1-.7,2,2,0,0,0,.4-1.4,2.66,2.66,0,0,0-.3-1.2,3.45,3.45,0,0,0-.9-.8,4.15,4.15,0,0,0-1.6-.3h-.9a1.09,1.09,0,0,1-.5.1Z" transform="translate(-281.45 -404.85)"/><path class="cls-4" d="M307.05,419.05a5,5,0,0,0-1.3-.5,7.72,7.72,0,0,0-1.5-.2,2.2,2.2,0,0,0-.8.1c-.2,0-.3.1-.4.3s-.1.2-.1.4a.37.37,0,0,0,.1.3,2.18,2.18,0,0,0,.5.4,3.55,3.55,0,0,0,.9.4,10,10,0,0,1,2.1,1,5.73,5.73,0,0,1,1.1,1.1,3.19,3.19,0,0,1,.3,1.4,4.07,4.07,0,0,1-.5,1.8,4.43,4.43,0,0,1-1.5,1.2,6.05,6.05,0,0,1-2.4.4,11,11,0,0,1-1.8-.2,7.37,7.37,0,0,1-1.4-.4l-.1-.1v-2.7h.2a8.65,8.65,0,0,0,1.7.7,7.77,7.77,0,0,0,1.6.2,2.68,2.68,0,0,0,1.1-.2c.1,0,.2-.1.3-.2a.37.37,0,0,0,.1-.3.55.55,0,0,0-.3-.5,4,4,0,0,0-1.3-.6,6.92,6.92,0,0,1-1.9-1,3.46,3.46,0,0,1-1-1.1,3.19,3.19,0,0,1-.3-1.4,3,3,0,0,1,.5-1.6,2.76,2.76,0,0,1,1.4-1.2,5.36,5.36,0,0,1,2.4-.5,9.7,9.7,0,0,1,1.7.1l1.2.3h.1l.1.1v2.6c-.6,0-.7,0-.8-.1C307.15,419.15,307.05,419.15,307.05,419.05Z" transform="translate(-281.45 -404.85)"/></g></svg>